<?xml version="1.0" encoding="UTF-8" standalone="no"?>
<svg
   xmlns:dc="http://purl.org/dc/elements/1.1/"
   xmlns:cc="http://creativecommons.org/ns#"
   xmlns:rdf="http://www.w3.org/1999/02/22-rdf-syntax-ns#"
   xmlns:svg="http://www.w3.org/2000/svg"
   xmlns="http://www.w3.org/2000/svg"
   xmlns:sodipodi="http://sodipodi.sourceforge.net/DTD/sodipodi-0.dtd"
   xmlns:inkscape="http://www.inkscape.org/namespaces/inkscape"
   version="1.1"
   id="svg2"
   xml:space="preserve"
   width="354.56"
   height="131.52"
   viewBox="0 0 354.56 131.52"
   sodipodi:docname="Logo_LeBrilliant_wektor.ai"><metadata
     id="metadata8"><rdf:RDF><cc:Work
         rdf:about=""><dc:format>image/svg+xml</dc:format><dc:type
           rdf:resource="http://purl.org/dc/dcmitype/StillImage" /></cc:Work></rdf:RDF></metadata><defs
     id="defs6"><linearGradient
       x1="0"
       y1="0"
       x2="1"
       y2="0"
       gradientUnits="userSpaceOnUse"
       gradientTransform="matrix(44.994103,-60.695171,-60.695171,-44.994103,112.79563,99.829956)"
       spreadMethod="pad"
       id="linearGradient36"><stop
         style="stop-opacity:1;stop-color:#eb8a00"
         offset="0"
         id="stop24" /><stop
         style="stop-opacity:1;stop-color:#fee68e"
         offset="0.2340878"
         id="stop26" /><stop
         style="stop-opacity:1;stop-color:#fee68e"
         offset="0.400866"
         id="stop28" /><stop
         style="stop-opacity:1;stop-color:#eb8a00"
         offset="0.758874"
         id="stop30" /><stop
         style="stop-opacity:1;stop-color:#fee68e"
         offset="0.96117279"
         id="stop32" /><stop
         style="stop-opacity:1;stop-color:#fee68e"
         offset="1"
         id="stop34" /></linearGradient><linearGradient
       x1="0"
       y1="0"
       x2="1"
       y2="0"
       gradientUnits="userSpaceOnUse"
       gradientTransform="matrix(44.994103,-60.695171,-60.695171,-44.994103,88.395317,81.741692)"
       spreadMethod="pad"
       id="linearGradient64"><stop
         style="stop-opacity:1;stop-color:#eb8a00"
         offset="0"
         id="stop52" /><stop
         style="stop-opacity:1;stop-color:#fee68e"
         offset="0.2340878"
         id="stop54" /><stop
         style="stop-opacity:1;stop-color:#fee68e"
         offset="0.400866"
         id="stop56" /><stop
         style="stop-opacity:1;stop-color:#eb8a00"
         offset="0.758874"
         id="stop58" /><stop
         style="stop-opacity:1;stop-color:#fee68e"
         offset="0.96117279"
         id="stop60" /><stop
         style="stop-opacity:1;stop-color:#fee68e"
         offset="1"
         id="stop62" /></linearGradient><linearGradient
       x1="0"
       y1="0"
       x2="1"
       y2="0"
       gradientUnits="userSpaceOnUse"
       gradientTransform="matrix(44.994103,-60.695171,-60.695171,-44.994103,107.19705,95.679657)"
       spreadMethod="pad"
       id="linearGradient92"><stop
         style="stop-opacity:1;stop-color:#eb8a00"
         offset="0"
         id="stop80" /><stop
         style="stop-opacity:1;stop-color:#fee68e"
         offset="0.2340878"
         id="stop82" /><stop
         style="stop-opacity:1;stop-color:#fee68e"
         offset="0.400866"
         id="stop84" /><stop
         style="stop-opacity:1;stop-color:#eb8a00"
         offset="0.758874"
         id="stop86" /><stop
         style="stop-opacity:1;stop-color:#fee68e"
         offset="0.96117279"
         id="stop88" /><stop
         style="stop-opacity:1;stop-color:#fee68e"
         offset="1"
         id="stop90" /></linearGradient><linearGradient
       x1="0"
       y1="0"
       x2="1"
       y2="0"
       gradientUnits="userSpaceOnUse"
       gradientTransform="matrix(44.994103,-60.695171,-60.695171,-44.994103,81.760963,76.823563)"
       spreadMethod="pad"
       id="linearGradient120"><stop
         style="stop-opacity:1;stop-color:#eb8a00"
         offset="0"
         id="stop108" /><stop
         style="stop-opacity:1;stop-color:#fee68e"
         offset="0.2340878"
         id="stop110" /><stop
         style="stop-opacity:1;stop-color:#fee68e"
         offset="0.400866"
         id="stop112" /><stop
         style="stop-opacity:1;stop-color:#eb8a00"
         offset="0.758874"
         id="stop114" /><stop
         style="stop-opacity:1;stop-color:#fee68e"
         offset="0.96117279"
         id="stop116" /><stop
         style="stop-opacity:1;stop-color:#fee68e"
         offset="1"
         id="stop118" /></linearGradient><linearGradient
       x1="0"
       y1="0"
       x2="1"
       y2="0"
       gradientUnits="userSpaceOnUse"
       gradientTransform="matrix(44.994103,-60.695171,-60.695171,-44.994103,87.305908,80.934105)"
       spreadMethod="pad"
       id="linearGradient148"><stop
         style="stop-opacity:1;stop-color:#eb8a00"
         offset="0"
         id="stop136" /><stop
         style="stop-opacity:1;stop-color:#fee68e"
         offset="0.2340878"
         id="stop138" /><stop
         style="stop-opacity:1;stop-color:#fee68e"
         offset="0.400866"
         id="stop140" /><stop
         style="stop-opacity:1;stop-color:#eb8a00"
         offset="0.758874"
         id="stop142" /><stop
         style="stop-opacity:1;stop-color:#fee68e"
         offset="0.96117279"
         id="stop144" /><stop
         style="stop-opacity:1;stop-color:#fee68e"
         offset="1"
         id="stop146" /></linearGradient><linearGradient
       x1="0"
       y1="0"
       x2="1"
       y2="0"
       gradientUnits="userSpaceOnUse"
       gradientTransform="matrix(44.994103,-60.695171,-60.695171,-44.994103,87.574379,81.133118)"
       spreadMethod="pad"
       id="linearGradient176"><stop
         style="stop-opacity:1;stop-color:#eb8a00"
         offset="0"
         id="stop164" /><stop
         style="stop-opacity:1;stop-color:#fee68e"
         offset="0.2340878"
         id="stop166" /><stop
         style="stop-opacity:1;stop-color:#fee68e"
         offset="0.400866"
         id="stop168" /><stop
         style="stop-opacity:1;stop-color:#eb8a00"
         offset="0.758874"
         id="stop170" /><stop
         style="stop-opacity:1;stop-color:#fee68e"
         offset="0.96117279"
         id="stop172" /><stop
         style="stop-opacity:1;stop-color:#fee68e"
         offset="1"
         id="stop174" /></linearGradient><linearGradient
       x1="0"
       y1="0"
       x2="1"
       y2="0"
       gradientUnits="userSpaceOnUse"
       gradientTransform="matrix(44.994103,-60.695171,-60.695171,-44.994103,107.15701,95.649979)"
       spreadMethod="pad"
       id="linearGradient204"><stop
         style="stop-opacity:1;stop-color:#eb8a00"
         offset="0"
         id="stop192" /><stop
         style="stop-opacity:1;stop-color:#fee68e"
         offset="0.2340878"
         id="stop194" /><stop
         style="stop-opacity:1;stop-color:#fee68e"
         offset="0.400866"
         id="stop196" /><stop
         style="stop-opacity:1;stop-color:#eb8a00"
         offset="0.758874"
         id="stop198" /><stop
         style="stop-opacity:1;stop-color:#fee68e"
         offset="0.96117279"
         id="stop200" /><stop
         style="stop-opacity:1;stop-color:#fee68e"
         offset="1"
         id="stop202" /></linearGradient><linearGradient
       x1="0"
       y1="0"
       x2="1"
       y2="0"
       gradientUnits="userSpaceOnUse"
       gradientTransform="matrix(44.994103,-60.695171,-60.695171,-44.994103,81.426948,76.575951)"
       spreadMethod="pad"
       id="linearGradient232"><stop
         style="stop-opacity:1;stop-color:#eb8a00"
         offset="0"
         id="stop220" /><stop
         style="stop-opacity:1;stop-color:#fee68e"
         offset="0.2340878"
         id="stop222" /><stop
         style="stop-opacity:1;stop-color:#fee68e"
         offset="0.400866"
         id="stop224" /><stop
         style="stop-opacity:1;stop-color:#eb8a00"
         offset="0.758874"
         id="stop226" /><stop
         style="stop-opacity:1;stop-color:#fee68e"
         offset="0.96117279"
         id="stop228" /><stop
         style="stop-opacity:1;stop-color:#fee68e"
         offset="1"
         id="stop230" /></linearGradient><linearGradient
       x1="0"
       y1="0"
       x2="1"
       y2="0"
       gradientUnits="userSpaceOnUse"
       gradientTransform="matrix(44.994103,-60.695171,-60.695171,-44.994103,97.53772,88.519074)"
       spreadMethod="pad"
       id="linearGradient260"><stop
         style="stop-opacity:1;stop-color:#eb8a00"
         offset="0"
         id="stop248" /><stop
         style="stop-opacity:1;stop-color:#fee68e"
         offset="0.2340878"
         id="stop250" /><stop
         style="stop-opacity:1;stop-color:#fee68e"
         offset="0.400866"
         id="stop252" /><stop
         style="stop-opacity:1;stop-color:#eb8a00"
         offset="0.758874"
         id="stop254" /><stop
         style="stop-opacity:1;stop-color:#fee68e"
         offset="0.96117279"
         id="stop256" /><stop
         style="stop-opacity:1;stop-color:#fee68e"
         offset="1"
         id="stop258" /></linearGradient><clipPath
       clipPathUnits="userSpaceOnUse"
       id="clipPath270"><path
         d="M 0,98.64 H 265.92 V 0 H 0 Z"
         id="path268" /></clipPath></defs><sodipodi:namedview
     pagecolor="#ffffff"
     bordercolor="#666666"
     borderopacity="1"
     objecttolerance="10"
     gridtolerance="10"
     guidetolerance="10"
     inkscape:pageopacity="0"
     inkscape:pageshadow="2"
     inkscape:window-width="640"
     inkscape:window-height="480"
     id="namedview4" /><g
     id="g10"
     inkscape:groupmode="layer"
     inkscape:label="Logo_LeBrilliant_wektor"
     transform="matrix(1.3333333,0,0,-1.3333333,0,131.52)"><g
       id="g12"><g
         id="g14"><g
           id="g20"><g
             id="g22"><path
               d="m 165.925,90.968 c -8.893,-0.001 -17.786,-0.001 -26.678,-0.001 v 0 c -11.535,0 -23.071,0 -34.605,0 v 0 c -2.293,0 -4.587,-0.041 -6.878,0.037 v 0 C 96.925,91.032 96.435,90.795 95.972,90.1 v 0 C 92.149,84.364 88.29,78.652 84.443,72.933 v 0 -0.625 c 2.606,-3.652 5.213,-7.305 7.844,-10.991 v 0 c 0.616,0.389 1.106,0.698 1.678,1.059 v 0 c -2.161,3.053 -4.274,6.037 -6.466,9.132 v 0 h 17.031 v -4.479 c 1.332,0.333 2.657,0.664 4.053,1.013 v 0 c -0.446,1.144 -0.881,2.256 -1.382,3.54 v 0 h 1.249 c 3.44,0 6.897,0.217 10.314,-0.057 v 0 c 3.871,-0.312 7.31,1.172 10.917,2.074 v 0 h -19.293 c -0.01,0.05 -0.02,0.099 -0.029,0.149 v 0 c 10.147,4.931 20.294,9.863 30.523,14.834 v 0 c 1.163,-5.026 2.31,-9.977 3.486,-15.054 v 0 h -9.786 c 0.786,-0.339 1.707,-0.383 2.337,-0.835 v 0 c 1.453,-1.042 3.031,-1.227 4.713,-1.146 v 0 c 0.044,0.002 0.091,-0.082 0.187,-0.174 v 0 c -0.606,-0.405 -1.199,-0.801 -1.784,-1.192 v 0 c 0.203,-0.693 0.378,-1.297 0.577,-1.978 v 0 c 1.191,0.756 2.266,1.437 3.561,2.258 v 0 c -1.331,-6.766 -2.615,-13.286 -3.897,-19.805 v 0 c 0.972,0.666 2.256,0.801 2.507,2.196 v 0 c 0.661,3.678 1.405,7.341 2.126,11.008 v 0 c 0.329,1.675 0.68,3.347 1.077,5.285 v 0 c 1.2,-2.802 2.285,-5.335 3.367,-7.863 v 0 c 0.675,0.211 1.251,0.391 1.903,0.595 v 0 c -1.377,3.256 -2.714,6.417 -4.076,9.64 v 0 h 30.228 c 0.1,-0.043 0.2,-0.087 0.301,-0.129 v 0 c -1.736,-1.273 -1.887,-2.887 -1.194,-4.765 v 0 c 1.309,1.797 2.654,3.555 3.871,5.398 v 0 c 0.212,0.319 0.036,1.098 -0.223,1.491 v 0 c -3.71,5.616 -7.453,11.209 -11.236,16.777 v 0 c -0.253,0.371 -0.86,0.59 -1.342,0.69 v 0 c -0.167,0.035 -0.338,0.047 -0.511,0.047 v 0 c -0.378,0 -0.768,-0.057 -1.149,-0.058 m -23.069,-2.019 h 22.055 C 158.593,84.01 152.463,79.216 146.242,74.352 v 0 c -1.149,4.952 -2.262,9.754 -3.386,14.597 M 98.821,88.92 h 38.163 C 126.567,83.857 116.398,78.915 106.145,73.932 v 0 c -2.444,5.003 -4.858,9.942 -7.324,14.988 m 68.873,-0.342 c 3.332,-4.98 6.623,-9.896 10.023,-14.973 v 0 H 148.55 c 6.476,5.064 12.767,9.985 19.144,14.973 M 97.025,88.025 c 2.38,-4.871 4.69,-9.603 7.044,-14.42 v 0 H 87.373 c 3.259,4.868 6.413,9.581 9.652,14.42"
               style="fill:url(#linearGradient36);stroke:none"
               id="path38" /></g></g></g></g><g
       id="g40"><g
         id="g42"><g
           id="g48"><g
             id="g50"><path
               d="m 132.289,10.269 c -0.076,-0.007 -0.153,-0.015 -0.229,-0.022 v 0 c -1.725,4.236 -3.448,8.471 -5.165,12.69 v 0 c -0.723,-0.052 -1.356,-0.097 -2.08,-0.149 v 0 c 1.087,-2.705 2.15,-5.352 3.213,-7.999 v 0 c -1.827,2.235 -3.473,4.552 -5.122,6.867 v 0 c -0.953,1.34 -1.44,1.507 -3.201,1.063 v 0 c 4.103,-5.79 8.188,-11.554 12.272,-17.317 v 0 h 1.043 c 0.177,0.21 0.372,0.408 0.53,0.633 v 0 c 3.716,5.231 7.428,10.466 11.139,15.701 v 0 c 0.192,0.271 0.367,0.554 0.565,0.856 v 0 c -1.522,0.356 -2.536,0.034 -3.419,-1.342 v 0 c -1.854,-2.885 -3.933,-5.628 -5.923,-8.427 v 0 c -0.417,-0.587 -0.849,-1.164 -1.461,-2.001 v 0 c 0.814,4.133 1.564,7.949 2.326,11.823 v 0 c -0.698,0.111 -1.319,0.21 -1.972,0.314 v 0 c -0.856,-4.316 -1.686,-8.503 -2.516,-12.69"
               style="fill:url(#linearGradient64);stroke:none"
               id="path66" /></g></g></g></g><g
       id="g68"><g
         id="g70"><g
           id="g76"><g
             id="g78"><path
               d="m 133.5,65.999 c -1.832,-1.126 -3.642,-2.29 -5.435,-3.474 v 0 c -0.205,-0.136 -0.388,-0.479 -0.382,-0.72 v 0 c 0.014,-0.529 0.156,-1.055 0.266,-1.708 v 0 c 2.578,1.649 5.07,3.245 7.631,4.884 v 0 c -0.46,0.39 -0.792,0.754 -1.199,0.984 v 0 c -0.132,0.074 -0.327,0.117 -0.511,0.117 v 0 c -0.142,0 -0.277,-0.026 -0.37,-0.083"
               style="fill:url(#linearGradient92);stroke:none"
               id="path94" /></g></g></g></g><g
       id="g96"><g
         id="g98"><g
           id="g104"><g
             id="g106"><path
               d="m 96.68,55.109 c 1.104,-1.55 2.153,-3.022 3.257,-4.569 v 0 c 0.475,0.641 0.858,1.158 1.249,1.687 v 0 c -0.961,1.35 -1.876,2.636 -2.838,3.987 v 0 c -0.596,-0.395 -1.102,-0.73 -1.668,-1.105"
               style="fill:url(#linearGradient120);stroke:none"
               id="path122" /></g></g></g></g><g
       id="g124"><g
         id="g126"><g
           id="g132"><g
             id="g134"><path
               d="m 119.668,35.459 c 0.077,-0.192 0.149,-0.385 0.226,-0.576 v 0 c 0.578,-1.427 0.885,-1.581 2.627,-1.172 v 0 c -0.644,1.592 -1.253,3.102 -1.87,4.628 v 0 c -1.696,-1.102 -1.695,-1.102 -0.983,-2.88"
               style="fill:url(#linearGradient148);stroke:none"
               id="path150" /></g></g></g></g><g
       id="g152"><g
         id="g154"><g
           id="g160"><g
             id="g162"><path
               d="m 103.948,55.799 c 1.839,1.511 2.156,2.166 1.902,3.927 v 0 c -2.108,-0.522 -2.375,-1.075 -1.902,-3.927"
               style="fill:url(#linearGradient176);stroke:none"
               id="path178" /></g></g></g></g><g
       id="g180"><g
         id="g182"><g
           id="g188"><g
             id="g190"><path
               d="m 150.822,33.707 c 0.733,-0.11 1.504,-0.465 2.025,-0.24 v 0 c 0.563,0.242 0.892,1.026 1.411,1.685 v 0 c -2.903,-0.533 -2.903,-0.533 -3.436,-1.445"
               style="fill:url(#linearGradient204);stroke:none"
               id="path206" /></g></g></g></g><g
       id="g208"><g
         id="g210"><g
           id="g216"><g
             id="g218"><path
               d="m 111.548,34.424 c 0.38,-0.718 1.975,-1.107 2.77,-0.733 v 0 c -0.48,0.746 -0.666,1.034 -1.197,1.034 v 0 c -0.334,0 -0.805,-0.114 -1.573,-0.301"
               style="fill:url(#linearGradient232);stroke:none"
               id="path234" /></g></g></g></g><g
       id="g236"><g
         id="g238"><g
           id="g244"><g
             id="g246"><path
               d="m 137.004,33.696 c 1.777,-0.558 1.777,-0.558 1.972,0.509 v 0 c -0.61,0.128 -1.222,0.256 -1.909,0.399 v 0 c -0.028,-0.401 -0.046,-0.661 -0.063,-0.908"
               style="fill:url(#linearGradient260);stroke:none"
               id="path262" /></g></g></g></g><g
       id="g264"><g
         id="g266"
         clip-path="url(#clipPath270)"><g
           id="g272"
           transform="translate(53.0148,55.0547)"><path
             d="M 0,0 C 3.982,0.54 10.192,2.902 11.137,6.884 11.609,9.112 9.854,10.597 7.02,10.529 5.467,10.529 2.97,9.719 1.687,8.91 2.16,8.302 2.632,7.492 2.97,6.615 3.578,4.859 3.375,4.117 3.239,4.117 3.105,4.117 3.172,4.792 2.227,6.479 1.822,7.222 1.08,8.032 0.675,8.37 -1.958,6.884 -4.658,3.442 -7.155,-0.135 -5.13,-0.405 -2.431,-0.337 0,0 m -10.935,0.473 c 3.105,3.914 7.56,7.627 10.732,8.909 -1.89,1.283 -5.197,2.97 -9.922,2.97 -5.737,0 -8.977,-2.633 -8.977,-5.468 0,-3.172 3.78,-5.467 8.167,-6.411 M -25.447,-13.5 c -2.835,-0.067 -5.332,-1.215 -5.4,-2.43 -0.068,-0.878 1.012,-1.147 2.16,-1.08 2.092,0 5.332,1.351 7.087,3.037 -1.012,0.27 -2.43,0.54 -3.847,0.473 m 15.659,26.797 c 4.996,0 8.236,-1.485 10.733,-3.51 1.687,0.675 4.117,1.283 6.075,1.283 3.645,0.134 6.682,-1.688 6.075,-4.725 -0.878,-4.387 -9.18,-6.616 -13.162,-7.088 -2.295,-0.27 -5.333,-0.27 -7.426,0 -4.454,-6.479 -7.627,-9.584 -11.947,-12.487 0.878,-0.134 3.038,-0.675 5.062,-1.215 2.431,-0.608 5.536,-1.214 6.953,-1.214 3.915,0 6.885,1.281 11.003,4.859 0.337,0.271 0.674,0.675 0.877,0.473 0.202,-0.202 -0.203,-0.608 -0.608,-1.013 -4.928,-4.59 -7.29,-6.548 -11.677,-6.548 -2.566,0 -5.4,0.609 -7.29,1.351 -2.227,0.878 -4.724,2.025 -5.602,2.227 -1.62,-1.283 -4.995,-3.375 -9.113,-3.442 -2.7,-0.067 -4.117,0.473 -4.049,1.552 0.134,2.227 6.142,3.511 10.057,3.442 1.013,0 2.363,-0.135 3.173,-0.269 3.712,3.442 5.399,7.762 9.314,12.892 -4.455,0.945 -8.37,3.374 -8.37,6.817 0,3.443 3.578,6.615 9.922,6.615"
             style="fill:#06429c;fill-opacity:1;fill-rule:nonzero;stroke:none"
             id="path274" /></g><g
           id="g276"
           transform="translate(64.5627,44.3896)"><path
             d="M 0,0 C 1.687,1.147 2.7,2.564 2.768,3.51 2.835,4.118 2.565,4.455 1.958,4.455 1.35,4.455 0.337,3.78 -1.013,2.498 -2.092,1.485 -3.78,-0.675 -4.59,-2.024 -3.24,-1.687 -1.417,-0.945 0,0 m 2.295,-3.375 c 1.283,0.878 2.835,2.093 4.118,3.24 C 6.817,0.202 7.02,0.27 7.155,0.136 7.29,-0.067 7.02,-0.405 6.615,-0.742 5.737,-1.553 3.578,-3.308 2.362,-4.117 c -2.835,-1.89 -5.332,-2.768 -7.627,-2.768 -2.498,0 -3.645,0.946 -3.577,2.7 0.067,1.35 0.675,2.565 2.025,4.185 L -6.885,0.067 C -7.088,-0.135 -7.83,-0.81 -8.234,-1.147 -8.572,-1.418 -8.775,-1.484 -8.91,-1.35 c -0.134,0.203 0.135,0.473 0.405,0.743 0.878,0.809 1.485,1.282 2.498,2.024 0.742,0.541 2.025,1.351 3.307,2.026 1.958,1.012 3.983,1.89 5.805,1.89 H 3.172 C 4.657,5.333 5.197,4.387 5.13,3.51 4.995,1.755 2.835,0.405 0.81,-0.607 -1.147,-1.553 -3.443,-2.362 -4.995,-2.768 -5.265,-3.308 -5.4,-3.915 -5.4,-4.319 c 0,-1.013 0.54,-1.553 1.552,-1.553 0.878,0 3.173,0.472 6.143,2.497"
             style="fill:#06429c;fill-opacity:1;fill-rule:nonzero;stroke:none"
             id="path278" /></g><g
           id="g280"
           transform="translate(88.3932,37.3701)"><path
             d="m 0,0 c 6.209,0 10.462,6.21 15.659,13.027 4.387,5.737 9.315,10.53 12.487,13.095 0.541,0.472 1.148,0.877 1.688,1.282 -0.607,0.135 -1.35,0.203 -2.16,0.203 -6.48,0 -15.322,-2.633 -22.477,-8.1 C -2.16,13.837 -4.388,7.964 -4.388,4.454 -4.388,1.822 -2.97,0 0,0 m 14.647,3.442 c 0,2.16 2.16,3.78 4.185,3.78 1.147,0 2.092,-0.539 2.092,-1.62 0,-1.08 -0.945,-1.621 -1.755,-1.957 -0.675,-0.27 -1.485,-0.608 -1.62,-1.35 -0.202,-1.148 1.351,-1.62 2.565,-1.62 4.387,0 9.45,4.792 9.72,10.327 0.203,3.308 -2.632,4.387 -3.915,4.252 -0.81,-0.134 -1.214,-0.202 -1.957,-0.202 -0.878,0 -1.688,0.135 -1.62,0.54 0.068,0.472 1.147,0.54 1.822,0.54 0.878,0 1.418,-0.135 2.025,-0.203 2.903,0.405 5.94,3.038 6.683,6.143 0.54,2.159 0.067,3.847 -1.485,4.792 -0.54,-0.54 -1.08,-1.012 -1.553,-1.552 -2.498,-2.498 -4.86,-5.738 -8.37,-10.395 C 15.255,6.48 7.897,-0.607 0.067,-0.607 c -4.185,0 -7.154,1.417 -7.154,5.129 0,3.915 3.105,9.585 11.137,15.457 7.695,5.603 17.01,8.235 24.029,8.235 0.945,0 1.823,-0.068 2.633,-0.202 2.362,1.687 4.589,2.903 6.48,3.645 1.956,0.81 4.387,1.417 6.682,1.417 2.16,0 3.982,-0.675 4.725,-1.822 0.203,-0.337 0.27,-0.541 0.134,-0.608 -0.134,-0.067 -0.202,0.135 -0.404,0.337 -0.743,0.878 -2.363,1.553 -4.388,1.553 -1.957,0 -4.32,-0.54 -6.345,-1.485 -1.552,-0.675 -3.442,-1.89 -5.332,-3.442 2.497,-0.945 4.253,-2.768 3.712,-5.535 -0.607,-3.713 -5.332,-5.94 -8.572,-6.412 v -0.068 c 4.118,-0.675 6.075,-3.037 5.94,-5.805 -0.27,-5.67 -6.412,-9.652 -13.23,-9.652 -2.565,0 -5.467,0.742 -5.467,3.307"
             style="fill:#06429c;fill-opacity:1;fill-rule:nonzero;stroke:none"
             id="path282" /></g><g
           id="g284"
           transform="translate(135.7839,47.833)"><path
             d="M 0,0 C 0,-0.879 -1.62,-2.296 -3.104,-4.051 -4.252,-5.4 -5.062,-6.548 -5.4,-7.224 c -0.337,-0.607 -0.337,-1.079 -0.067,-1.282 0.27,-0.202 0.742,-0.135 1.485,0.271 0.742,0.404 1.957,1.147 3.038,2.024 1.484,1.148 2.295,1.822 3.172,2.633 0.472,0.473 0.876,0.675 1.012,0.54 0.202,-0.203 -0.27,-0.608 -0.81,-1.148 -0.81,-0.742 -2.16,-1.957 -3.847,-3.24 -1.418,-1.08 -3.78,-2.699 -6.008,-2.699 -1.417,0 -2.159,0.742 -2.092,1.754 0.068,1.485 1.755,3.375 3.24,4.793 1.619,1.552 4.185,3.375 4.387,3.848 0.27,0.742 -1.012,0.539 -2.7,0.539 -0.675,0 -1.215,0 -1.553,0.135 -0.54,-0.607 -1.484,-1.552 -2.564,-2.565 -1.148,-1.08 -1.958,-1.822 -2.7,-2.497 -0.608,-0.54 -0.877,-0.675 -1.012,-0.54 -0.136,0.135 0.067,0.472 0.742,1.08 0.81,0.742 1.418,1.282 2.632,2.43 0.945,0.877 1.823,1.754 2.362,2.362 -0.607,0.405 -0.674,1.35 0,2.16 0.54,0.675 1.486,1.148 2.566,1.148 0.54,0 1.147,-0.271 1.215,-0.675 C -3.375,3.509 -3.645,3.306 -4.05,2.902 -4.927,1.957 -4.725,1.484 -3.848,1.417 -1.957,1.35 0,1.282 0,0.066 Z"
             style="fill:#06429c;fill-opacity:1;fill-rule:nonzero;stroke:none"
             id="path286" /></g><g
           id="g288"
           transform="translate(153.0651,58.6313)"><path
             d="m 0,0 c 0.877,0 1.283,-0.742 0.473,-1.754 -0.81,-1.08 -2.497,-1.823 -3.172,-1.823 -0.338,0.405 -0.406,1.418 -0.069,2.295 C -2.362,-0.27 -1.35,0 -0.067,0 Z m -12.353,-12.891 c -1.012,-0.811 -1.754,-1.418 -2.429,-2.026 -0.54,-0.472 -0.81,-0.674 -1.013,-0.54 -0.135,0.135 0,0.406 0.742,1.081 0.743,0.674 3.173,2.699 4.793,3.78 1.755,1.214 2.633,1.485 3.915,1.485 1.417,0 1.553,-0.203 0.742,-1.081 -1.214,-1.35 -2.294,-2.633 -3.644,-4.319 -1.148,-1.418 -1.958,-2.633 -2.362,-3.308 -0.406,-0.742 -0.473,-1.215 -0.204,-1.485 0.338,-0.27 0.946,-0.135 1.621,0.203 0.674,0.338 1.822,1.079 2.969,2.024 1.418,1.148 2.026,1.688 3.106,2.701 0.607,0.54 0.877,0.809 1.08,0.607 0.202,-0.203 -0.54,-0.878 -0.743,-1.08 -0.81,-0.811 -2.497,-2.295 -3.847,-3.375 -1.351,-1.08 -3.645,-2.768 -5.872,-2.768 -1.418,0 -2.025,0.675 -2.025,1.756 0,0.877 0.471,1.754 1.011,2.565 1.351,2.092 3.983,4.859 5.063,5.804 -0.472,-0.202 -1.89,-1.215 -2.903,-2.024"
             style="fill:#06429c;fill-opacity:1;fill-rule:nonzero;stroke:none"
             id="path290" /></g><g
           id="g292"
           transform="translate(152.1882,46.415)"><path
             d="M 0,0 C -1.012,-0.878 -2.024,-1.823 -2.768,-2.498 -3.172,-2.835 -3.375,-2.902 -3.51,-2.7 c -0.067,0.202 0.135,0.405 0.338,0.607 0.27,0.27 2.835,2.497 4.927,4.253 1.756,2.227 5.062,6.344 7.965,9.652 2.295,2.7 5.062,5.669 8.033,8.37 0.809,0.742 1.552,1.147 2.43,1.147 0.674,0 1.011,-0.269 1.011,-0.473 C 19.912,19.574 13.973,13.027 11.138,9.652 6.615,4.185 1.755,-2.093 0.338,-5.197 0.135,-5.67 -0.27,-6.615 0.203,-7.02 c 0.473,-0.337 1.484,0.067 2.093,0.405 0.877,0.472 1.821,1.147 2.766,1.89 1.215,0.945 2.093,1.688 2.97,2.497 0.271,0.27 0.811,0.743 1.013,0.541 C 9.18,-1.823 8.978,-2.093 8.572,-2.498 7.763,-3.308 6.075,-4.793 4.455,-6.008 3.104,-7.02 0.607,-8.707 -1.62,-8.707 c -1.35,0 -2.159,0.606 -2.092,1.822 0.067,1.619 1.755,4.252 3.779,6.818 z"
             style="fill:#06429c;fill-opacity:1;fill-rule:nonzero;stroke:none"
             id="path294" /></g><g
           id="g296"
           transform="translate(163.53,46.415)"><path
             d="M 0,0 C -1.012,-0.878 -2.025,-1.823 -2.768,-2.498 -3.172,-2.835 -3.375,-2.902 -3.51,-2.7 c -0.067,0.202 0.135,0.405 0.338,0.607 0.27,0.27 2.835,2.497 4.927,4.253 1.755,2.227 5.062,6.344 7.965,9.652 2.295,2.7 5.062,5.669 8.032,8.37 0.81,0.742 1.553,1.147 2.43,1.147 0.674,0 1.012,-0.269 1.012,-0.473 C 19.912,19.574 13.973,13.027 11.138,9.652 6.614,4.185 1.755,-2.093 0.338,-5.197 0.136,-5.67 -0.271,-6.615 0.202,-7.02 c 0.473,-0.337 1.485,0.067 2.093,0.405 0.878,0.472 1.822,1.147 2.767,1.89 1.215,0.945 2.093,1.688 2.97,2.497 0.271,0.27 0.811,0.743 1.013,0.541 C 9.18,-1.823 8.978,-2.093 8.572,-2.498 7.762,-3.308 6.074,-4.793 4.455,-6.008 3.104,-7.02 0.607,-8.707 -1.62,-8.707 c -1.35,0 -2.16,0.606 -2.093,1.822 0.068,1.619 1.756,4.252 3.78,6.818 z"
             style="fill:#06429c;fill-opacity:1;fill-rule:nonzero;stroke:none"
             id="path298" /></g><g
           id="g300"
           transform="translate(186.6843,58.6313)"><path
             d="M 0,0 C 0.877,0 1.281,-0.742 0.473,-1.754 -0.338,-2.834 -2.025,-3.577 -2.7,-3.577 -3.038,-3.172 -3.105,-2.159 -2.768,-1.282 -2.362,-0.27 -1.351,0 -0.068,0 Z m -12.353,-12.891 c -1.012,-0.811 -1.754,-1.418 -2.429,-2.026 -0.54,-0.472 -0.811,-0.674 -1.013,-0.54 -0.135,0.135 0,0.406 0.742,1.081 0.743,0.674 3.172,2.699 4.792,3.78 1.756,1.214 2.633,1.485 3.916,1.485 1.417,0 1.552,-0.203 0.742,-1.081 -1.214,-1.35 -2.295,-2.633 -3.645,-4.319 -1.148,-1.418 -1.957,-2.633 -2.362,-3.308 -0.406,-0.742 -0.473,-1.215 -0.203,-1.485 0.338,-0.27 0.945,-0.135 1.62,0.203 0.675,0.338 1.823,1.079 2.97,2.024 1.417,1.148 2.026,1.688 3.105,2.701 0.608,0.54 0.878,0.809 1.08,0.607 0.203,-0.203 -0.54,-0.878 -0.742,-1.08 -0.811,-0.811 -2.498,-2.295 -3.848,-3.375 -1.35,-1.08 -3.644,-2.768 -5.872,-2.768 -1.418,0 -2.025,0.675 -2.025,1.756 0,0.877 0.472,1.754 1.012,2.565 1.351,2.092 3.983,4.859 5.063,5.804 -0.473,-0.202 -1.89,-1.215 -2.903,-2.024"
             style="fill:#06429c;fill-opacity:1;fill-rule:nonzero;stroke:none"
             id="path302" /></g><g
           id="g304"
           transform="translate(187.9675,44.7275)"><path
             d="m 0,0 c -2.768,-2.7 -3.915,-4.455 -3.78,-5.332 0.067,-0.473 0.404,-0.676 0.877,-0.676 1.283,0 3.847,1.486 5.67,3.173 2.16,1.89 4.589,4.792 4.657,5.872 C 7.492,3.915 6.952,4.252 6.209,4.252 4.859,4.252 2.43,2.43 0,0 m 11.744,4.927 c 1.417,0.068 1.553,-0.27 0.878,-1.08 C 11.744,2.835 10.259,1.147 8.842,-0.607 7.965,-1.687 7.087,-2.835 6.479,-3.915 6.007,-4.726 6.007,-5.266 6.276,-5.468 c 0.338,-0.27 1.014,0 1.553,0.271 0.676,0.338 1.958,1.215 3.038,2.092 1.417,1.147 2.497,2.092 3.239,2.767 0.407,0.338 0.744,0.675 0.946,0.473 0.203,-0.203 -0.135,-0.54 -0.878,-1.215 -0.877,-0.811 -2.497,-2.228 -3.779,-3.24 -1.351,-1.08 -3.578,-2.7 -5.806,-2.7 -1.281,0 -1.89,0.607 -1.957,1.417 -0.068,0.744 0.338,1.688 0.945,2.43 L 3.51,-3.105 c -1.756,-1.552 -4.861,-3.781 -7.425,-3.915 -1.485,-0.068 -3.038,0.54 -2.768,2.7 0.135,1.012 0.675,2.092 1.89,3.509 l -0.067,0.068 c -0.202,-0.202 -0.473,-0.472 -0.878,-0.81 -0.27,-0.203 -0.473,-0.338 -0.607,-0.203 -0.135,0.203 0.202,0.609 0.945,1.283 0.202,0.202 1.349,1.148 2.024,1.62 0.676,0.473 1.823,1.215 3.105,1.89 2.633,1.35 4.996,2.16 6.75,1.89 1.35,-0.202 1.823,-1.417 1.417,-2.565 1.621,1.687 2.768,2.565 3.848,2.565"
             style="fill:#06429c;fill-opacity:1;fill-rule:nonzero;stroke:none"
             id="path306" /></g><g
           id="g308"
           transform="translate(214.0241,39.4619)"><path
             d="M 0,0 C 0.066,1.485 1.553,3.173 2.834,4.726 3.848,5.94 4.86,7.088 5.669,8.032 5.939,8.371 6.074,8.775 5.736,8.978 5.399,9.18 4.657,8.91 3.982,8.573 2.767,7.965 0.878,6.817 -1.283,5.13 c -2.97,-2.295 -4.59,-3.847 -7.56,-6.142 -0.606,-0.472 -1.012,-0.608 -1.755,-0.608 -0.945,0 -1.417,0.136 -0.878,1.081 0.473,0.877 1.891,3.104 2.97,4.521 0.744,1.013 1.958,2.566 2.7,3.51 0.473,0.609 0.608,0.946 0.473,1.149 C -5.536,8.91 -5.94,8.775 -6.345,8.573 -7.156,8.168 -8.168,7.426 -8.978,6.75 -9.855,6.008 -10.936,5.063 -11.881,4.186 c -0.675,-0.608 -0.944,-0.811 -1.146,-0.608 -0.136,0.202 0.202,0.54 1.012,1.282 0.81,0.743 2.295,2.161 3.509,3.105 1.823,1.418 3.173,2.227 4.59,2.227 1.283,0 1.687,-0.742 1.687,-1.484 0,-0.81 -0.539,-1.687 -1.417,-2.902 C -4.658,4.455 -6.075,2.633 -6.818,1.553 L -6.75,1.485 c 1.62,1.35 3.847,3.308 6.209,5.063 2.362,1.755 5.332,3.644 7.357,3.644 1.418,0 2.228,-0.674 2.093,-1.821 C 8.707,7.155 7.289,5.603 6.21,4.253 5.129,2.971 4.319,1.823 3.982,1.283 3.441,0.406 3.441,0 3.712,-0.202 c 0.337,-0.271 1.079,0 1.62,0.27 0.81,0.405 1.755,0.945 3.24,2.092 1.147,0.878 2.497,2.093 3.241,2.768 0.539,0.472 0.742,0.54 0.876,0.405 C 12.825,5.197 12.622,4.928 12.15,4.455 11.542,3.848 9.518,2.025 8.099,0.945 6.749,-0.066 4.116,-1.754 2.024,-1.754 0.742,-1.754 -0.067,-1.147 0,0"
             style="fill:#06429c;fill-opacity:1;fill-rule:nonzero;stroke:none"
             id="path310" /></g><g
           id="g312"
           transform="translate(226.1081,43.8506)"><path
             d="m 0,0 c -0.474,-0.406 -0.675,-0.473 -0.811,-0.338 -0.134,0.135 0,0.404 0.473,0.81 1.822,1.62 3.646,3.24 4.928,4.387 -0.878,0 -1.62,-0.067 -2.431,-0.067 -0.472,0 -0.809,0 -0.742,0.337 0.067,0.27 0.742,0.337 1.823,0.405 0.877,0.068 1.619,0.068 1.889,0.068 2.094,2.565 4.794,5.535 6.345,7.02 1.215,1.214 2.836,2.767 4.253,2.767 0.674,0 0.945,-0.202 1.012,-0.405 C 15.93,14.241 14.174,12.352 12.622,10.596 11.069,8.842 9.854,7.356 8.504,5.602 c 1.553,0.067 2.768,0.067 3.848,0.067 0.541,0 1.012,-0.067 0.945,-0.405 -0.068,-0.405 -0.675,-0.338 -1.215,-0.338 -1.484,0 -2.565,0 -4.117,-0.067 C 6.615,3.239 4.32,-0.203 3.104,-2.565 2.7,-3.308 2.497,-4.253 3.037,-4.523 c 0.405,-0.203 1.148,0 1.688,0.27 0.809,0.404 1.958,1.148 3.037,2.024 1.216,0.946 2.362,2.026 3.173,2.701 0.337,0.269 0.742,0.674 0.945,0.472 0.135,-0.135 0,-0.338 -0.473,-0.81 -0.742,-0.742 -2.7,-2.497 -4.117,-3.577 -1.216,-0.946 -3.645,-2.768 -6.21,-2.768 -1.554,0 -2.093,0.878 -2.025,1.891 0.134,1.687 1.687,4.117 3.645,6.681 C 1.62,1.483 0.81,0.741 0,0"
             style="fill:#06429c;fill-opacity:1;fill-rule:nonzero;stroke:none"
             id="path314" /></g><g
           id="g316"
           transform="translate(84.5275,28.0059)"><path
             d="M 0,0 -0.784,1.859 -1.567,0 Z m 0.205,-0.497 h -1.983 l -0.498,-1.189 c -0.043,-0.118 -0.124,-0.173 -0.236,-0.173 -0.155,0 -0.249,0.112 -0.249,0.242 0,0.025 0.006,0.062 0.025,0.112 l 1.667,3.861 c 0.062,0.144 0.161,0.212 0.304,0.212 0.143,0 0.243,-0.068 0.299,-0.212 l 1.66,-3.842 c 0.012,-0.037 0.019,-0.076 0.019,-0.106 0,-0.143 -0.1,-0.267 -0.255,-0.267 -0.119,0 -0.2,0.055 -0.249,0.173 z"
             style="fill:#000000;fill-opacity:1;fill-rule:nonzero;stroke:none"
             id="path318" /></g><g
           id="g320"
           transform="translate(87.009,28.1494)"><path
             d="m 0,0 c 0,-0.952 0.46,-1.518 1.275,-1.518 0.728,0 1.157,0.51 1.157,1.48 V 2.17 c 0,0.143 0.118,0.255 0.267,0.255 0.143,0 0.261,-0.112 0.261,-0.255 V -0.144 C 2.96,-0.771 2.799,-1.238 2.481,-1.549 2.164,-1.86 1.76,-2.016 1.275,-2.016 c -0.542,0 -0.977,0.168 -1.306,0.498 -0.33,0.33 -0.497,0.802 -0.497,1.418 v 2.27 c 0,0.143 0.117,0.255 0.267,0.255 C -0.118,2.425 0,2.313 0,2.17 Z"
             style="fill:#000000;fill-opacity:1;fill-rule:nonzero;stroke:none"
             id="path322" /></g><g
           id="g324"
           transform="translate(92.6808,30.0449)"><path
             d="m 0,0 v -3.637 c 0,-0.143 -0.118,-0.261 -0.261,-0.261 -0.149,0 -0.267,0.118 -0.267,0.261 V 0 H -1.81 c -0.13,0 -0.242,0.119 -0.242,0.249 0,0.131 0.112,0.249 0.242,0.249 H 1.281 C 1.412,0.498 1.523,0.38 1.523,0.249 1.523,0.119 1.412,0 1.281,0 Z"
             style="fill:#000000;fill-opacity:1;fill-rule:nonzero;stroke:none"
             id="path326" /></g><g
           id="g328"
           transform="translate(95.4094,29.6162)"><path
             d="m 0,0 c -0.317,-0.33 -0.473,-0.746 -0.473,-1.249 0,-0.492 0.162,-0.908 0.479,-1.238 0.318,-0.336 0.716,-0.503 1.182,-0.503 0.491,0 0.889,0.167 1.2,0.497 0.304,0.329 0.461,0.746 0.461,1.244 C 2.849,-0.746 2.687,-0.33 2.369,0 2.053,0.33 1.655,0.492 1.188,0.492 0.709,0.492 0.317,0.33 0,0 m -0.398,-2.86 c -0.423,0.417 -0.634,0.957 -0.634,1.611 0,0.634 0.211,1.168 0.628,1.598 0.417,0.428 0.951,0.64 1.592,0.64 0.64,0 1.169,-0.212 1.592,-0.629 0.417,-0.416 0.628,-0.957 0.628,-1.609 0,-0.641 -0.211,-1.176 -0.635,-1.599 -0.422,-0.429 -0.951,-0.64 -1.585,-0.64 -0.641,0 -1.169,0.211 -1.586,0.628"
             style="fill:#000000;fill-opacity:1;fill-rule:nonzero;stroke:none"
             id="path330" /></g><g
           id="g332"
           transform="translate(100.3176,28.4287)"><path
             d="M 0,0 H 0.64 C 0.908,0 1.138,0.074 1.336,0.229 1.529,0.379 1.629,0.578 1.629,0.827 1.629,1.362 1.287,1.63 0.609,1.63 0.479,1.63 0.273,1.623 0,1.616 Z m 2.226,-2.282 c -0.1,0 -0.186,0.05 -0.268,0.149 l -1.25,1.636 H 0 v -1.524 c 0,-0.143 -0.118,-0.261 -0.261,-0.261 -0.15,0 -0.268,0.118 -0.268,0.261 v 3.874 c 0,0.143 0.118,0.261 0.261,0.261 0.441,0.006 0.74,0.013 0.908,0.013 1.033,0 1.549,-0.43 1.549,-1.293 C 2.189,0.517 2.096,0.249 1.915,0.031 1.729,-0.187 1.504,-0.329 1.244,-0.398 L 2.4,-1.859 c 0.044,-0.056 0.069,-0.119 0.069,-0.181 0,-0.13 -0.1,-0.242 -0.243,-0.242"
             style="fill:#000000;fill-opacity:1;fill-rule:nonzero;stroke:none"
             id="path334" /></g><g
           id="g336"
           transform="translate(103.2204,30.5742)"><path
             d="M 0,0 C 0.1,0 0.186,-0.062 0.261,-0.193 L 1.38,-2.021 2.506,-0.193 C 2.587,-0.062 2.673,0 2.779,0 2.928,0 3.016,-0.1 3.016,-0.225 3.016,-0.268 3.003,-0.317 2.972,-0.367 L 1.623,-2.519 v -1.647 c 0,-0.144 -0.119,-0.262 -0.261,-0.262 -0.149,0 -0.268,0.118 -0.268,0.262 v 1.647 l -1.318,2.115 C -0.255,-0.36 -0.268,-0.311 -0.268,-0.255 -0.268,-0.112 -0.156,0 0,0"
             style="fill:#000000;fill-opacity:1;fill-rule:nonzero;stroke:none"
             id="path338" /></g><g
           id="g340"
           transform="translate(106.6516,26.1904)"><path
             d="m 0,0 c -0.124,0 -0.211,0.08 -0.211,0.187 0,0.074 0.044,0.167 0.124,0.279 L 2.487,3.854 H 0.193 c -0.131,0 -0.243,0.12 -0.243,0.25 0,0.13 0.112,0.249 0.243,0.249 h 2.854 c 0.143,0 0.212,-0.069 0.212,-0.2 0,-0.068 -0.044,-0.162 -0.131,-0.267 L 0.541,0.497 H 3.035 C 3.166,0.497 3.277,0.379 3.277,0.248 3.277,0.118 3.166,0 3.035,0 Z"
             style="fill:#000000;fill-opacity:1;fill-rule:nonzero;stroke:none"
             id="path342" /></g><g
           id="g344"
           transform="translate(111.3088,29.6162)"><path
             d="m 0,0 c -0.317,-0.33 -0.473,-0.746 -0.473,-1.249 0,-0.492 0.162,-0.908 0.479,-1.238 0.318,-0.336 0.716,-0.503 1.182,-0.503 0.492,0 0.89,0.167 1.2,0.497 0.304,0.329 0.46,0.746 0.46,1.244 C 2.848,-0.746 2.687,-0.33 2.369,0 2.052,0.33 1.654,0.492 1.188,0.492 0.708,0.492 0.317,0.33 0,0 m -0.398,-2.86 c -0.423,0.417 -0.634,0.957 -0.634,1.611 0,0.634 0.211,1.168 0.628,1.598 0.416,0.428 0.951,0.64 1.592,0.64 0.641,0 1.169,-0.212 1.592,-0.629 0.416,-0.416 0.628,-0.957 0.628,-1.609 0,-0.641 -0.212,-1.176 -0.634,-1.599 -0.423,-0.429 -0.952,-0.64 -1.586,-0.64 -0.641,0 -1.169,0.211 -1.586,0.628"
             style="fill:#000000;fill-opacity:1;fill-rule:nonzero;stroke:none"
             id="path346" /></g><g
           id="g348"
           transform="translate(117.6213,30.2998)"><path
             d="M 0,0 C 0.062,0.181 0.168,0.274 0.312,0.274 0.46,0.274 0.566,0.181 0.629,0 l 1.094,-3.208 0.939,3.27 c 0.037,0.144 0.118,0.212 0.242,0.212 0.168,0 0.249,-0.106 0.249,-0.249 0,-0.018 -0.006,-0.049 -0.012,-0.093 l -1.125,-3.83 c -0.05,-0.168 -0.143,-0.255 -0.275,-0.255 -0.142,0 -0.248,0.087 -0.31,0.255 l -1.132,3.29 -1.113,-3.29 c -0.056,-0.168 -0.155,-0.255 -0.298,-0.255 -0.144,0 -0.243,0.087 -0.293,0.255 l -1.156,3.755 c -0.013,0.044 -0.019,0.081 -0.019,0.124 0,0.168 0.105,0.293 0.299,0.293 0.13,0 0.211,-0.068 0.254,-0.212 l 0.958,-3.27 z"
             style="fill:#000000;fill-opacity:1;fill-rule:nonzero;stroke:none"
             id="path350" /></g><g
           id="g352"
           transform="translate(123.507,28.0059)"><path
             d="M 0,0 -0.784,1.859 -1.567,0 Z m 0.205,-0.497 h -1.984 l -0.497,-1.189 c -0.044,-0.118 -0.125,-0.173 -0.236,-0.173 -0.156,0 -0.249,0.112 -0.249,0.242 0,0.025 0.006,0.062 0.025,0.112 l 1.666,3.861 c 0.062,0.144 0.162,0.212 0.305,0.212 0.143,0 0.243,-0.068 0.298,-0.212 l 1.661,-3.842 c 0.012,-0.037 0.018,-0.076 0.018,-0.106 0,-0.143 -0.1,-0.267 -0.255,-0.267 -0.117,0 -0.199,0.055 -0.249,0.173 z"
             style="fill:#000000;fill-opacity:1;fill-rule:nonzero;stroke:none"
             id="path354" /></g><g
           id="g356"
           transform="translate(128.6623,27.1104)"><path
             d="m 0,0 v 3.221 c 0,0.131 0.118,0.243 0.249,0.243 0.13,0 0.249,-0.112 0.249,-0.243 v -3.917 c 0,-0.156 -0.094,-0.268 -0.225,-0.268 -0.106,0 -0.211,0.063 -0.316,0.193 l -2.6,3.277 v -3.228 c 0,-0.13 -0.118,-0.242 -0.249,-0.242 -0.13,0 -0.249,0.112 -0.249,0.242 v 3.893 c 0,0.168 0.088,0.293 0.243,0.293 0.106,0 0.218,-0.075 0.335,-0.225 z"
             style="fill:#000000;fill-opacity:1;fill-rule:nonzero;stroke:none"
             id="path358" /></g><g
           id="g360"
           transform="translate(130.2619,30.5742)"><path
             d="M 0,0 C 0.099,0 0.186,-0.062 0.261,-0.193 L 1.38,-2.021 2.505,-0.193 C 2.587,-0.062 2.673,0 2.78,0 2.929,0 3.016,-0.1 3.016,-0.225 3.016,-0.268 3.003,-0.317 2.972,-0.367 L 1.623,-2.519 v -1.647 c 0,-0.144 -0.119,-0.262 -0.262,-0.262 -0.149,0 -0.267,0.118 -0.267,0.262 v 1.647 l -1.318,2.115 C -0.255,-0.36 -0.268,-0.311 -0.268,-0.255 -0.268,-0.112 -0.155,0 0,0"
             style="fill:#000000;fill-opacity:1;fill-rule:nonzero;stroke:none"
             id="path362" /></g><g
           id="g364"
           transform="translate(135.2184,26.626)"><path
             d="m 0,0 c -0.05,0.043 -0.074,0.1 -0.074,0.173 0,0.056 0.018,0.112 0.055,0.156 0.05,0.062 0.113,0.093 0.194,0.093 C 0.23,0.422 0.274,0.41 0.317,0.379 0.659,0.123 0.958,0 1.213,0 c 0.478,0 0.852,0.255 0.852,0.678 0,1.063 -2.127,0.72 -2.127,2.163 0,0.324 0.119,0.597 0.354,0.814 C 0.529,3.873 0.846,3.979 1.25,3.979 1.623,3.979 1.966,3.88 2.271,3.687 2.338,3.644 2.369,3.575 2.369,3.488 2.369,3.433 2.356,3.389 2.326,3.356 2.271,3.276 2.201,3.239 2.121,3.239 2.083,3.239 2.033,3.251 1.978,3.283 1.76,3.413 1.523,3.482 1.281,3.482 0.803,3.482 0.497,3.233 0.497,2.841 0.497,1.765 2.624,2.17 2.624,0.684 2.624,0.329 2.487,0.05 2.221,-0.168 1.946,-0.386 1.61,-0.498 1.206,-0.498 0.796,-0.498 0.392,-0.33 0,0"
             style="fill:#000000;fill-opacity:1;fill-rule:nonzero;stroke:none"
             id="path366" /></g><g
           id="g368"
           transform="translate(141.0378,28.0059)"><path
             d="M 0,0 -0.783,1.859 -1.566,0 Z m 0.205,-0.497 h -1.983 l -0.498,-1.189 c -0.043,-0.118 -0.124,-0.173 -0.236,-0.173 -0.156,0 -0.249,0.112 -0.249,0.242 0,0.025 0.006,0.062 0.025,0.112 l 1.667,3.861 c 0.061,0.144 0.161,0.212 0.304,0.212 0.143,0 0.243,-0.068 0.298,-0.212 l 1.661,-3.842 c 0.012,-0.037 0.018,-0.076 0.018,-0.106 0,-0.143 -0.1,-0.267 -0.255,-0.267 -0.117,0 -0.198,0.055 -0.248,0.173 z"
             style="fill:#000000;fill-opacity:1;fill-rule:nonzero;stroke:none"
             id="path370" /></g><g
           id="g372"
           transform="translate(143.5807,26.6875)"><path
             d="m 0,0 h 1.902 c 0.131,0 0.244,-0.118 0.244,-0.249 0,-0.13 -0.113,-0.248 -0.244,-0.248 h -2.17 c -0.142,0 -0.26,0.118 -0.26,0.261 v 3.868 c 0,0.142 0.118,0.255 0.267,0.255 C -0.118,3.887 0,3.774 0,3.632 Z"
             style="fill:#000000;fill-opacity:1;fill-rule:nonzero;stroke:none"
             id="path374" /></g><g
           id="g376"
           transform="translate(146.9684,29.6162)"><path
             d="m 0,0 c -0.317,-0.33 -0.473,-0.746 -0.473,-1.249 0,-0.492 0.161,-0.908 0.479,-1.238 0.317,-0.336 0.716,-0.503 1.182,-0.503 0.491,0 0.889,0.167 1.2,0.497 0.304,0.329 0.461,0.746 0.461,1.244 C 2.849,-0.746 2.687,-0.33 2.369,0 2.053,0.33 1.654,0.492 1.188,0.492 0.709,0.492 0.317,0.33 0,0 m -0.397,-2.86 c -0.423,0.417 -0.635,0.957 -0.635,1.611 0,0.634 0.212,1.168 0.628,1.598 0.417,0.428 0.951,0.64 1.592,0.64 0.64,0 1.169,-0.212 1.592,-0.629 0.416,-0.416 0.628,-0.957 0.628,-1.609 0,-0.641 -0.212,-1.176 -0.635,-1.599 -0.422,-0.429 -0.951,-0.64 -1.585,-0.64 -0.641,0 -1.169,0.211 -1.585,0.628"
             style="fill:#000000;fill-opacity:1;fill-rule:nonzero;stroke:none"
             id="path378" /></g><g
           id="g380"
           transform="translate(154.488,27.1104)"><path
             d="m 0,0 v 3.221 c 0,0.131 0.118,0.243 0.248,0.243 0.132,0 0.249,-0.112 0.249,-0.243 v -3.917 c 0,-0.156 -0.093,-0.268 -0.223,-0.268 -0.106,0 -0.212,0.063 -0.317,0.193 l -2.6,3.277 v -3.228 c 0,-0.13 -0.118,-0.242 -0.249,-0.242 -0.13,0 -0.249,0.112 -0.249,0.242 v 3.893 c 0,0.168 0.088,0.293 0.244,0.293 0.105,0 0.217,-0.075 0.335,-0.225 z"
             style="fill:#000000;fill-opacity:1;fill-rule:nonzero;stroke:none"
             id="path382" /></g><g
           id="g384"
           transform="translate(159.1608,30.0449)"><path
             d="m 0,0 v -3.637 c 0,-0.143 -0.118,-0.261 -0.261,-0.261 -0.149,0 -0.267,0.118 -0.267,0.261 V 0 H -1.81 c -0.129,0 -0.242,0.119 -0.242,0.249 0,0.131 0.113,0.249 0.242,0.249 H 1.281 C 1.412,0.498 1.523,0.38 1.523,0.249 1.523,0.119 1.412,0 1.281,0 Z"
             style="fill:#000000;fill-opacity:1;fill-rule:nonzero;stroke:none"
             id="path386" /></g><g
           id="g388"
           transform="translate(164.3278,30.3193)"><path
             d="M 0,0 C 0,0.143 0.118,0.255 0.268,0.255 0.41,0.255 0.528,0.143 0.528,0 V -3.911 C 0.528,-4.055 0.41,-4.173 0.268,-4.173 0.118,-4.173 0,-4.055 0,-3.911 v 1.753 h -2.395 v -1.753 c 0,-0.144 -0.117,-0.262 -0.26,-0.262 -0.15,0 -0.268,0.118 -0.268,0.262 V 0 c 0,0.143 0.118,0.255 0.268,0.255 0.143,0 0.26,-0.112 0.26,-0.255 V -1.661 H 0 Z"
             style="fill:#000000;fill-opacity:1;fill-rule:nonzero;stroke:none"
             id="path390" /></g><g
           id="g392"
           transform="translate(168.4206,28.0059)"><path
             d="M 0,0 -0.783,1.859 -1.566,0 Z m 0.205,-0.497 h -1.983 l -0.498,-1.189 c -0.043,-0.118 -0.124,-0.173 -0.236,-0.173 -0.155,0 -0.249,0.112 -0.249,0.242 0,0.025 0.006,0.062 0.026,0.112 l 1.666,3.861 c 0.061,0.144 0.161,0.212 0.304,0.212 0.143,0 0.243,-0.068 0.298,-0.212 l 1.661,-3.842 c 0.012,-0.037 0.019,-0.076 0.019,-0.106 0,-0.143 -0.1,-0.267 -0.255,-0.267 -0.119,0 -0.199,0.055 -0.249,0.173 z"
             style="fill:#000000;fill-opacity:1;fill-rule:nonzero;stroke:none"
             id="path394" /></g><g
           id="g396"
           transform="translate(170.9645,26.6875)"><path
             d="m 0,0 h 1.902 c 0.131,0 0.244,-0.118 0.244,-0.249 0,-0.13 -0.113,-0.248 -0.244,-0.248 h -2.17 c -0.143,0 -0.261,0.118 -0.261,0.261 v 3.868 c 0,0.142 0.118,0.255 0.267,0.255 C -0.118,3.887 0,3.774 0,3.632 Z"
             style="fill:#000000;fill-opacity:1;fill-rule:nonzero;stroke:none"
             id="path398" /></g><g
           id="g400"
           transform="translate(174.3327,29.6289)"><path
             d="m 0,0 c -0.305,-0.317 -0.454,-0.74 -0.454,-1.262 0,-0.529 0.155,-0.945 0.461,-1.262 0.305,-0.318 0.702,-0.479 1.2,-0.479 0.416,0 0.889,0.161 1.119,0.385 v 0.895 H 1.393 c -0.13,0 -0.243,0.119 -0.243,0.249 0,0.13 0.113,0.248 0.243,0.248 h 1.169 c 0.143,0 0.261,-0.118 0.261,-0.26 V -2.73 c 0,-0.118 -0.05,-0.217 -0.149,-0.292 -0.392,-0.298 -0.983,-0.479 -1.481,-0.479 -0.676,0 -1.212,0.205 -1.61,0.609 -0.397,0.405 -0.597,0.952 -0.597,1.63 0,0.64 0.2,1.168 0.591,1.598 0.392,0.429 0.908,0.641 1.548,0.641 0.461,0 0.858,-0.1 1.194,-0.299 C 2.406,0.628 2.45,0.56 2.45,0.473 2.45,0.43 2.438,0.386 2.413,0.342 2.369,0.268 2.301,0.23 2.208,0.23 2.151,0.23 2.102,0.242 2.046,0.273 1.785,0.41 1.499,0.479 1.187,0.479 0.696,0.479 0.305,0.317 0,0"
             style="fill:#000000;fill-opacity:1;fill-rule:nonzero;stroke:none"
             id="path402" /></g><g
           id="g404"
           transform="translate(178.8786,29.6162)"><path
             d="m 0,0 c -0.316,-0.33 -0.472,-0.746 -0.472,-1.249 0,-0.492 0.161,-0.908 0.479,-1.238 0.317,-0.336 0.715,-0.503 1.181,-0.503 0.491,0 0.889,0.167 1.201,0.497 0.303,0.329 0.46,0.746 0.46,1.244 C 2.849,-0.746 2.687,-0.33 2.369,0 2.053,0.33 1.655,0.492 1.188,0.492 0.71,0.492 0.317,0.33 0,0 m -0.397,-2.86 c -0.423,0.417 -0.634,0.957 -0.634,1.611 0,0.634 0.211,1.168 0.628,1.598 0.417,0.428 0.951,0.64 1.591,0.64 0.64,0 1.169,-0.212 1.592,-0.629 0.417,-0.416 0.628,-0.957 0.628,-1.609 0,-0.641 -0.211,-1.176 -0.635,-1.599 -0.421,-0.429 -0.951,-0.64 -1.585,-0.64 -0.64,0 -1.168,0.211 -1.585,0.628"
             style="fill:#000000;fill-opacity:1;fill-rule:nonzero;stroke:none"
             id="path406" /></g></g></g></g></svg>
